<svg id="Layer_1" data-name="Layer 1" xmlns="http://www.w3.org/2000/svg" viewBox="0 0 6098.5 6098.5"><defs><style>.cls-1{fill:#fff;}</style></defs><rect x="137.25" y="137.25" width="5824" height="5824"/><path class="cls-1" d="M2876.33,4726.72q108.78,108.82,108.79,310,0,244-148.37,392.36c0,2.24-1.14,4.45-3.29,6.6q19.77-62.59,19.78-138.48,0-148.41-105.51-247.31c-8.81-8.75-20.37-18.13-34.62-28s-34.65-21.45-61-34.63-59.92-27.48-100.54-42.86-90.69-33-150-52.75q-300.08-102.21-418.77-230.82-115.47-118.74-115.42-319.86,0-181.29,102.25-313.26a144.3,144.3,0,0,0-3.32,28v28q0,151.71,105.54,237.42,89,75.85,319.83,158.25Q2760.87,4611.37,2876.33,4726.72Z"/><path class="cls-1" d="M1926.86,5191.66a1241.77,1241.77,0,0,0,122,181.35,959,959,0,0,0,158.26,155H1926.86Z"/><path class="cls-1" d="M3796.21,5241.1q19.8,118.74,66,181.38t102.22,92.3a764.56,764.56,0,0,1-77.49,9.92q-41.27,3.31-87.37,3.28-138.51,0-220.93-29.66t-122-89q-26.4-42.78-32.95-79.12V4040.88q0-95.62-29.69-155h0a1774,1774,0,0,0,214.32-148.4q102.16-82.35,187.95-191.23V5241.1Z"/><path class="cls-1" d="M5484.44,4726.72q108.8,108.82,108.79,310,0,244-148.37,392.36c0,2.24-1.13,4.45-3.29,6.6q19.77-62.59,19.78-138.48,0-148.41-105.51-247.31c-8.81-8.75-20.37-18.13-34.62-28s-34.65-21.45-61-34.63-59.92-27.48-100.55-42.86-90.69-33-150-52.75q-300.07-102.21-418.77-230.82-115.45-118.74-115.39-319.86,0-181.29,102.22-313.26a144.3,144.3,0,0,0-3.32,28v28q0,151.71,105.54,237.42,89,75.85,319.83,158.25Q5369,4611.37,5484.44,4726.72Z"/><path class="cls-1" d="M4535,5191.66A1238.45,1238.45,0,0,0,4657,5373a959,959,0,0,0,158.25,155H4535Z"/><path class="cls-1" d="M2873.67,4222.22a1483.1,1483.1,0,0,0-125.28-181.34,961.67,961.67,0,0,0-158.29-155h283.57Z"/><path class="cls-1" d="M4191.88,4215.62a1355.49,1355.49,0,0,0-120.35-176.39,901.6,901.6,0,0,0-153.33-150h273.68Z"/><path class="cls-1" d="M5481.78,4222.22a1483.1,1483.1,0,0,0-125.28-181.34,961.27,961.27,0,0,0-158.29-155h283.57Z"/></svg>